<svg width="48" height="49" viewBox="0 0 48 49" fill="none" xmlns="http://www.w3.org/2000/svg">
<g clip-path="url(#clip0_1_15)">
<path d="M32.4919 49C31.6708 48.7912 30.8233 48.6578 30.0372 48.3649C26.554 47.0601 23.2665 45.3639 20.1544 43.3458C16.0808 40.7043 12.4281 37.5843 9.31302 33.8583C5.91159 29.7873 3.21732 25.3075 1.12503 20.4536C0.479224 18.9574 -0.0350828 17.438 -1.64382e-05 15.7969C0.0730385 12.387 1.81467 10.0093 4.77193 8.43193C5.72164 7.9274 6.72104 7.52726 7.81102 7.41418C9.16984 7.275 10.3855 7.60265 11.4492 8.47252C12.9365 9.69035 14.196 11.1285 15.2685 12.6972C16.2386 14.1151 17.1299 15.6026 17.8926 17.1365C18.9826 19.3285 18.1293 21.4655 16.3263 22.8515C16.0604 23.0574 15.7886 23.2604 15.5022 23.4344C14.6869 23.9273 13.6876 23.7214 13.1499 22.9675C12.6239 22.2281 12.7524 21.2539 13.4684 20.6421C13.784 20.3724 14.123 20.1288 14.4386 19.8592C14.8886 19.4764 14.985 18.9864 14.7279 18.479C14.3363 17.7135 13.9359 16.948 13.4684 16.226C12.3872 14.5616 11.1832 12.993 9.78058 11.5722C9.0734 10.856 8.33117 10.682 7.3873 11.0618C6.25056 11.52 5.20442 12.0883 4.44464 13.0655C3.267 14.5819 3.27577 16.2695 3.90404 17.9686C4.80992 20.4101 5.98464 22.7327 7.3084 24.9769C9.6257 28.9088 12.3959 32.4897 15.7798 35.5865C20.0287 39.4748 24.8533 42.4701 30.1775 44.6767C31.0133 45.0246 31.8987 45.3204 32.79 45.4509C34.8618 45.7582 36.4076 44.8535 37.4888 43.137C37.8161 42.6151 38.047 42.0294 38.2895 41.4581C38.6168 40.6985 38.4561 40.0171 37.86 39.4516C37.2901 38.9123 36.7232 38.3672 36.1154 37.8743C34.5959 36.6419 33.0091 35.5053 31.2587 34.6064C30.1395 34.0352 29.7246 34.1251 28.9677 35.1139C28.7924 35.3429 28.6258 35.5807 28.4213 35.7808C27.8164 36.3694 26.89 36.4245 26.2121 35.9315C25.5341 35.4415 25.2448 34.5165 25.6627 33.8033C26.4897 32.3883 27.5592 31.2284 29.2775 30.8747C30.1863 30.6891 31.0629 30.7877 31.9191 31.1327C33.7017 31.8576 35.3381 32.8493 36.8372 34.0236C38.1551 35.0588 39.4117 36.1867 40.5981 37.3697C41.992 38.7644 42.2637 40.4897 41.6822 42.3338C40.9867 44.5375 39.7974 46.4106 37.8161 47.7067C36.8635 48.3301 35.8173 48.7158 34.6923 48.8956C34.5696 48.9159 34.4527 48.9623 34.3329 48.9941C33.7134 49 33.1026 49 32.4919 49Z" fill="#87AA0B"/>
<path d="M26.4897 3.07394e-05C36.7203 0.176905 45.7996 7.7883 47.6026 17.7513C47.8481 19.1083 47.927 20.503 48 21.8861C48.0497 22.811 47.3484 23.5359 46.4775 23.6316C45.6184 23.7273 44.8119 23.217 44.5957 22.4022C44.508 22.0658 44.4846 21.7092 44.4758 21.3612C44.3911 17.9136 43.3917 14.7386 41.4894 11.8651C39.3123 8.57409 36.3667 6.18773 32.6672 4.73794C30.537 3.90286 28.3161 3.54622 26.0339 3.46213C24.8474 3.41864 24.1461 2.70244 24.1812 1.65279C24.2163 0.637938 25.0111 -0.0115676 26.1975 3.07394e-05C26.2969 3.07394e-05 26.3933 3.07394e-05 26.4897 3.07394e-05Z" fill="#87AA0B"/>
<path d="M26.4459 10.1225C31.7672 10.3052 36.4281 14.1413 37.5707 19.4765C37.7343 20.2362 37.7782 21.0249 37.8162 21.802C37.8658 22.8139 37.1499 23.591 36.1943 23.6403C35.1949 23.6896 34.3943 22.9966 34.3475 21.9673C34.2978 20.906 34.1342 19.8825 33.7572 18.885C32.6205 15.8811 29.5551 13.6919 26.3202 13.5846C26.1128 13.5788 25.9024 13.5672 25.6949 13.5353C24.7276 13.3845 24.1286 12.6451 24.187 11.6912C24.2396 10.801 24.9673 10.1254 25.917 10.0964C26.0923 10.0877 26.2706 10.1109 26.4459 10.1225Z" fill="#87AA0B"/>
</g>
<defs>
<clipPath id="clip0_1_15">
<rect width="48" height="49" fill="white"/>
</clipPath>
</defs>
</svg>
